<?xml version="1.0" encoding="UTF-8" standalone="no"?>
<!DOCTYPE svg PUBLIC "-//W3C//DTD SVG 1.1//EN" "http://www.w3.org/Graphics/SVG/1.1/DTD/svg11.dtd">
<svg width="100%" height="100%" viewBox="0 0 330 286" version="1.1" xmlns="http://www.w3.org/2000/svg" xmlns:xlink="http://www.w3.org/1999/xlink" xml:space="preserve" xmlns:serif="http://www.serif.com/" style="fill-rule:evenodd;clip-rule:evenodd;stroke-linejoin:round;stroke-miterlimit:2;">
    <g transform="matrix(1,0,0,1.16055,0,-2.14018)">
        <g id="RectangleBouge23">
            <rect x="206.83" y="13.33" width="48.92" height="114.3" style="fill:rgb(228,39,236);"/>
        </g>
    </g>
    <g transform="matrix(1,0,0,1.26691,0,-9.13085)">
        <g id="RectangleBouge22">
            <rect x="255.74" y="34.21" width="19.47" height="61.88" style="fill:rgb(161,36,223);"/>
        </g>
    </g>
    <g transform="matrix(1.17479,0,0,1.22864,-41.8493,-21.9613)">
        <g id="RectangleBouge21">
            <rect x="239.43" y="96.05" width="35.78" height="31.56" style="fill:rgb(107,7,211);"/>
        </g>
    </g>
    <g transform="matrix(1.13745,0,0,1.26125,-19.4152,-17.1379)">
        <g id="RectangleBouge20">
            <rect x="141.25" y="65.6" width="55.54" height="30.45" style="fill:rgb(107,7,211);"/>
        </g>
    </g>
    <g id="RectangleBouge19" transform="matrix(1.26626,0,0,1,-12.0217,0)">
        <rect x="45.15" y="95.97" width="112.86" height="16.07" style="fill:rgb(228,39,236);"/>
    </g>
    <g transform="matrix(1,0,0,1.49561,0,-16.3255)">
        <g id="RectangleBouge18">
            <rect x="196.8" y="32.94" width="10.03" height="43.97" style="fill:rgb(255,4,163);"/>
        </g>
    </g>
    <g transform="matrix(1,0,0,1.77231,0,-59.3833)">
        <g id="RectangleBouge17">
            <rect x="158.02" y="76.89" width="48.83" height="50.64" style="fill:rgb(223,197,24);"/>
        </g>
    </g>
    <g transform="matrix(1.14054,0,0,1.60783,-41.0402,0)">
        <g id="RectangleBouge16">
            <rect x="277.28" y="0" width="14.74" height="34.22" style="fill:rgb(255,4,163);"/>
        </g>
    </g>
    <g transform="matrix(1.44043,0,0,1,-25.2499,0)">
        <g id="RectangleBouge15">
            <rect x="57.33" y="130.69" width="64" height="17.8" style="fill:rgb(223,197,24);"/>
        </g>
    </g>
    <g transform="matrix(1.00082,0,0,1.09069,-0.0990424,-10.1515)">
        <g id="RectangleBouge14">
            <rect x="121.36" y="111.94" width="36.76" height="36.47" style="fill:rgb(255,4,163);"/>
        </g>
    </g>
    <g transform="matrix(1,0,0,1,11.8916,0)">
        <g id="RectangleBouge13">
            <rect x="0" y="148.44" width="158.15" height="9.69" style="fill:rgb(107,7,211);"/>
        </g>
    </g>
    <g transform="matrix(1.00008,0,0,1.05633,-0.0231414,-7.23672)">
        <g id="Calque8">
            <rect x="158.13" y="127.58" width="120.33" height="157.97" style="fill:rgb(161,36,223);"/>
        </g>
    </g>
    <g transform="matrix(1.1587,0,0,1.31689,-31.4372,-83.6499)">
        <g id="RectangleBouge12">
            <rect x="198.09" y="263.97" width="131.36" height="21.58" style="fill:rgb(107,7,211);"/>
        </g>
    </g>
    <g transform="matrix(1.82323,0,0,1,-163.066,0)">
        <g id="RectangleBouge11">
            <rect x="198.08" y="221.42" width="14.98" height="42.54" style="fill:rgb(223,197,24);"/>
        </g>
    </g>
    <g id="RectangleBouge10" transform="matrix(2.49346,0,0,1,-318.227,0)">
        <rect x="213.08" y="221.46" width="15.63" height="42.51" style="fill:rgb(107,7,211);"/>
    </g>
    <g transform="matrix(1.15515,0,0,1.25977,-42.6985,-8.8892)">
        <g id="RectangleBouge9">
            <rect x="275.21" y="34.22" width="54.03" height="132.46" style="fill:rgb(223,197,24);"/>
        </g>
    </g>
    <g transform="matrix(1.04139,0,0,1,-9.47641,0)">
        <g id="RectangleBouge8">
            <rect x="228.93" y="221.55" width="100.41" height="42.41" style="fill:rgb(255,4,163);"/>
        </g>
    </g>
    <g transform="matrix(1.16018,0,0,1,-41.1194,0)">
        <g id="RectangleBouge7">
            <rect x="256.71" y="166.64" width="54.97" height="54.92" style="fill:rgb(228,39,236);"/>
        </g>
    </g>
    <g transform="matrix(1.91963,0,0,1,-286.586,0)">
        <g id="RectangleBouge6">
            <rect x="311.63" y="166.55" width="17.71" height="55.02" style="fill:rgb(107,7,211);"/>
        </g>
    </g>
    <g transform="matrix(1,0,0,1.06876,0,-10.8705)">
        <g id="Calque20">
            <rect x="121.42" y="158.1" width="36.73" height="127.53" style="fill:rgb(14,165,197);"/>
        </g>
    </g>
    <g transform="matrix(1.28742,0,0,1.12913,-6.69681,-22.2665)">
        <g id="RectangleBouge5">
            <rect x="23.3" y="172.44" width="28.53" height="75.74" style="fill:rgb(223,197,24);"/>
        </g>
    </g>
    <g transform="matrix(2.2535,0,0,1,-51.1429,0)">
        <g id="RectangleBouge4">
            <rect x="40.8" y="158.15" width="10.98" height="14.34" style="fill:rgb(255,4,163);"/>
        </g>
    </g>
    <g id="Calque21">
        <rect x="51.79" y="158.15" width="69.6" height="41.86" style="fill:rgb(228,39,236);"/>
    </g>
    <g transform="matrix(1,0,0,2.02248,0,-193.984)">
        <g id="RectangleBouge3">
            <rect x="62.87" y="189.72" width="58.54" height="10.32" style="fill:rgb(161,36,223);"/>
        </g>
    </g>
    <g transform="matrix(1.57898,0,0,1,-4.8982,0)">
        <g id="RectangleBouge2">
            <rect x="8.46" y="248.25" width="29.16" height="23.65" style="fill:rgb(107,7,211);"/>
        </g>
    </g>
    <g id="RectangleBouge1" transform="matrix(1,0,0,1.18508,0,-37.0214)">
        <rect x="37.58" y="200.03" width="83.84" height="85.52" style="fill:rgb(255,4,163);"/>
    </g>
</svg>
